<svg width="32" height="32" viewBox="0 0 32 32" fill="none" xmlns="http://www.w3.org/2000/svg">
<mask id="mask0_1214_1208" style="mask-type:alpha" maskUnits="userSpaceOnUse" x="0" y="0" width="32" height="32">
<rect width="32" height="32" fill="#D9D9D9"/>
</mask>
<g mask="url(#mask0_1214_1208)">
<path d="M15.9993 16.0006C16.7326 16.0006 17.3604 15.7395 17.8826 15.2172C18.4049 14.695 18.666 14.0672 18.666 13.3339C18.666 12.6006 18.4049 11.9728 17.8826 11.4506C17.3604 10.9283 16.7326 10.6672 15.9993 10.6672C15.266 10.6672 14.6382 10.9283 14.116 11.4506C13.5938 11.9728 13.3326 12.6006 13.3326 13.3339C13.3326 14.0672 13.5938 14.695 14.116 15.2172C14.6382 15.7395 15.266 16.0006 15.9993 16.0006ZM15.9993 25.8006C18.7104 23.3117 20.7215 21.0506 22.0326 19.0172C23.3438 16.9839 23.9993 15.1783 23.9993 13.6006C23.9993 11.1783 23.2271 9.19501 21.6826 7.65057C20.1382 6.10613 18.2438 5.3339 15.9993 5.3339C13.7549 5.3339 11.8604 6.10613 10.316 7.65057C8.77153 9.19501 7.99931 11.1783 7.99931 13.6006C7.99931 15.1783 8.65486 16.9839 9.96597 19.0172C11.2771 21.0506 13.2882 23.3117 15.9993 25.8006ZM15.9993 29.3339C12.4215 26.2895 9.74931 23.4617 7.98264 20.8506C6.21597 18.2395 5.33264 15.8228 5.33264 13.6006C5.33264 10.2672 6.40486 7.61168 8.54931 5.6339C10.6938 3.65613 13.1771 2.66724 15.9993 2.66724C18.8215 2.66724 21.3049 3.65613 23.4493 5.6339C25.5938 7.61168 26.666 10.2672 26.666 13.6006C26.666 15.8228 25.7826 18.2395 24.016 20.8506C22.2493 23.4617 19.5771 26.2895 15.9993 29.3339Z" fill="#A1A1A1"/>
</g>
</svg>
