<svg width="28" height="27" viewBox="0 0 28 27" fill="none" xmlns="http://www.w3.org/2000/svg">
<path d="M14 12.9722C12.1666 12.9722 10.6435 12.3657 9.4305 11.1528C8.21756 9.93982 7.61108 8.41667 7.61108 6.58333C7.61108 4.75 8.21756 3.22686 9.4305 2.01392C10.6435 0.800944 12.1666 0.194458 14 0.194458C15.8333 0.194458 17.3564 0.800944 18.5694 2.01392C19.7824 3.22686 20.3888 4.75 20.3888 6.58333C20.3888 8.41667 19.7824 9.93982 18.5694 11.1528C17.3564 12.3657 15.8333 12.9722 14 12.9722ZM0.666626 26.3333V22.1667C0.666626 21.1482 0.92357 20.257 1.43746 19.4931C1.95135 18.7292 2.62033 18.1482 3.44442 17.75C5.25922 16.9074 7.03236 16.2755 8.76383 15.8542C10.4953 15.4329 12.2407 15.2223 14 15.2223C15.7592 15.2223 17.4999 15.4375 19.2222 15.8681C20.9444 16.2986 22.7122 16.9277 24.5255 17.7554C25.3737 18.1559 26.0537 18.7366 26.5655 19.4975C27.0774 20.2584 27.3333 21.1482 27.3333 22.1667V26.3333H0.666626ZM3.44438 23.5556H24.5555V22.1667C24.5555 21.7685 24.4421 21.3935 24.2153 21.0417C23.9884 20.6898 23.7037 20.4259 23.3611 20.25C21.6759 19.4259 20.0879 18.8449 18.5972 18.507C17.1064 18.169 15.574 18 14 18C12.4259 18 10.8842 18.169 9.37496 18.507C7.86571 18.8449 6.27775 19.4259 4.61108 20.25C4.26847 20.4259 3.98838 20.6898 3.77079 21.0417C3.55318 21.3935 3.44438 21.7685 3.44438 22.1667V23.5556ZM14 10.1945C15.0277 10.1945 15.8865 9.84956 16.5763 9.15975C17.2662 8.46992 17.6111 7.61111 17.6111 6.58333C17.6111 5.55556 17.2662 4.69676 16.5763 4.00696C15.8865 3.31712 15.0277 2.97221 14 2.97221C12.9722 2.97221 12.1134 3.31712 11.4236 4.00696C10.7338 4.69676 10.3888 5.55556 10.3888 6.58333C10.3888 7.61111 10.7338 8.46992 11.4236 9.15975C12.1134 9.84956 12.9722 10.1945 14 10.1945Z" fill="#C8EBFF"/>
</svg>
