<svg width="40" height="40" viewBox="0 0 40 40" fill="none" xmlns="http://www.w3.org/2000/svg">
<mask id="mask0_1233_663" style="mask-type:alpha" maskUnits="userSpaceOnUse" x="0" y="0" width="40" height="40">
<rect width="40" height="40" fill="#D9D9D9"/>
</mask>
<g mask="url(#mask0_1233_663)">
<path d="M20.0001 19.9722C18.1667 19.9722 16.6436 19.3657 15.4306 18.1528C14.2177 16.9398 13.6112 15.4167 13.6112 13.5833C13.6112 11.75 14.2177 10.2269 15.4306 9.01392C16.6436 7.80094 18.1667 7.19446 20.0001 7.19446C21.8334 7.19446 23.3566 7.80094 24.5695 9.01392C25.7825 10.2269 26.389 11.75 26.389 13.5833C26.389 15.4167 25.7825 16.9398 24.5695 18.1528C23.3566 19.3657 21.8334 19.9722 20.0001 19.9722ZM6.66675 33.3333V29.1667C6.66675 28.1482 6.92369 27.257 7.43758 26.4931C7.95147 25.7292 8.62046 25.1482 9.44454 24.75C11.2593 23.9074 13.0325 23.2755 14.764 22.8542C16.4955 22.4329 18.2408 22.2223 20.0001 22.2223C21.7593 22.2223 23.5001 22.4375 25.2223 22.8681C26.9445 23.2986 28.7123 23.9277 30.5257 24.7554C31.3738 25.1559 32.0538 25.7366 32.5657 26.4975C33.0775 27.2584 33.3334 28.1482 33.3334 29.1667V33.3333H6.66675ZM9.4445 30.5556H30.5557V29.1667C30.5557 28.7685 30.4422 28.3935 30.2154 28.0417C29.9885 27.6898 29.7038 27.4259 29.3612 27.25C27.676 26.4259 26.088 25.8449 24.5973 25.507C23.1066 25.169 21.5742 25 20.0001 25C18.426 25 16.8843 25.169 15.3751 25.507C13.8658 25.8449 12.2779 26.4259 10.6112 27.25C10.2686 27.4259 9.9885 27.6898 9.77091 28.0417C9.5533 28.3935 9.4445 28.7685 9.4445 29.1667V30.5556ZM20.0001 17.1945C21.0279 17.1945 21.8867 16.8496 22.5765 16.1597C23.2663 15.4699 23.6112 14.6111 23.6112 13.5833C23.6112 12.5556 23.2663 11.6968 22.5765 11.007C21.8867 10.3171 21.0279 9.97221 20.0001 9.97221C18.9723 9.97221 18.1135 10.3171 17.4237 11.007C16.7339 11.6968 16.389 12.5556 16.389 13.5833C16.389 14.6111 16.7339 15.4699 17.4237 16.1597C18.1135 16.8496 18.9723 17.1945 20.0001 17.1945Z" fill="#C8EBFF"/>
</g>
</svg>
